<svg xmlns="http://www.w3.org/2000/svg" width="720" height="520" viewBox="0 0 720 520"><rect width="720" height="520" rx="28" fill="#eeece5"/><circle cx="570" cy="120" r="70" fill="#e0d4a8"/><rect x="75" y="65" width="440" height="360" rx="22" fill="#fff" stroke="#ddd8c8" stroke-width="3"/><text x="115" y="115" font-family="Arial" font-size="21" font-weight="bold" fill="#292a26">Academic progress</text><text x="115" y="148" font-family="Arial" font-size="14" fill="#77786f">Performance snapshot</text><path d="M125 340 L205 285 L280 305 L365 220 L450 175" fill="none" stroke="#a28d39" stroke-width="8" stroke-linecap="round" stroke-linejoin="round"/><g fill="#a28d39"><circle cx="125" cy="340" r="8"/><circle cx="205" cy="285" r="8"/><circle cx="280" cy="305" r="8"/><circle cx="365" cy="220" r="8"/><circle cx="450" cy="175" r="8"/></g><path d="M120 370 H460 M120 250 H460 M120 190 H460" stroke="#e8e5dc" stroke-width="2"/><rect x="530" y="240" width="125" height="155" rx="15" fill="#d7e2d8"/><path d="M550 355 L570 325 L590 340 L625 285" fill="none" stroke="#527c5e" stroke-width="7" stroke-linecap="round"/><circle cx="625" cy="285" r="8" fill="#527c5e"/><text x="592" y="425" text-anchor="middle" font-family="Arial" font-size="15" fill="#42654b">Growth</text><text x="360" y="480" text-anchor="middle" font-family="Arial" font-size="21" font-weight="bold" fill="#292a26">Small steps. Better outcomes.</text></svg>